<?xml version="1.0" encoding="UTF-8" standalone="no"?>
<!DOCTYPE svg PUBLIC "-//W3C//DTD SVG 20010904//EN"
              "http://www.w3.org/TR/2001/REC-SVG-20010904/DTD/svg10.dtd">
<svg xmlns="http://www.w3.org/2000/svg" viewBox="0 0 50 50" enable-background="new 0 0 20 20" fill="var(--ft)" width="22" height="22" role="img"><path d="M38.288 10.297l1.414 1.415-14.99 14.99-1.414-1.414z"/><path d="M40 20h-2v-8h-8v-2h10z"/><path d="M35 38H15c-1.7 0-3-1.3-3-3V15c0-1.7 1.3-3 3-3h11v2H15c-.6 0-1 .4-1 1v20c0 .6.4 1 1 1h20c.6 0 1-.4 1-1V24h2v11c0 1.7-1.3 3-3 3z"/></svg>