<svg id="Layer_1" data-name="Layer 1" width="120" height="120" viewBox="0 0 800 800"><defs><style>
.cls-1, .cls-6 { fill: #fff; } .cls-2 { fill: none; stroke: #00b6b7; stroke-miterlimit: 10; stroke-width: 7px; } .cls-3 { fill: #00b6b7; } .cls-4 { fill: #008889; } .cls-5 { font-size: 31.3px; } .cls-5, .cls-6 { font-family: NunitoSans-ExtraBold, Nunito Sans; font-weight: 800; } .cls-6 { font-size: 88.21px; letter-spacing: 0.13em; } .cls-7 { letter-spacing: 0.13em; } .cls-8 { letter-spacing: 0.11em; } .cls-9 { letter-spacing: 0.13em; } .cls-10 { font-size: 36.81px; font-family: NunitoSans-Bold, Nunito Sans; font-weight: 700; } .cls-11 { font-family: NunitoSans-ExtraBold, Nunito Sans; font-weight: 800;font-size: 33.46px; } .cls-48 { font-size: 89.68px; letter-spacing: 0.08em; fill: #fff;font-family: NunitoSans-ExtraBold, Nunito Sans; font-weight: 800; } .cls-49 { letter-spacing: 0.07em; }
</style></defs><circle fill="white" cx="400" cy="400" r="400"></circle><circle class="cls-2" cx="400" cy="400" r="252.93"></circle><circle class="cls-3" fill-opacity="0" cx="400" cy="400" r="376" stroke="#00b6b7" stroke-width="48" stroke-opacity="1"></circle><path class="cls-4" d="M800,400a400,400,0,0,1-18.94,125.59h-761A400,400,0,0,1,0,400v-3.05h800C800,400,800,400,800,400Z" transform="translate(0 -6.71)"></path><path class="cls-3" d="M425.59,547.06h-51a12.72,12.72,0,0,0-12.75,12.76h0v51.09a12.71,12.71,0,0,0,12.75,12.75h51.09a12.71,12.71,0,0,0,12.75-12.75V559.82a12.79,12.79,0,0,0-12.84-12.76Zm5.51,62.28a7,7,0,0,1-7,7H376.16a7,7,0,0,1-7-7h0V578.07h62Zm0-38.61h-62v-9.34a7,7,0,0,1,7-7H424a7,7,0,0,1,7,7h0Z" transform="translate(0 -6.71)"></path><path class="cls-3" d="M375.29,559.12h6.37a.41.41,0,0,1,.44.43v6.38a.41.41,0,0,1-.44.44h-6.37a.42.42,0,0,1-.44-.44v-6.38A.41.41,0,0,1,375.29,559.12Z" transform="translate(0 -6.71)"></path><path class="cls-3" d="M386.38,559.12h6.38a.4.4,0,0,1,.43.43v6.38a.41.41,0,0,1-.43.44h-6.38a.42.42,0,0,1-.44-.44v-6.38A.41.41,0,0,1,386.38,559.12Z" transform="translate(0 -6.71)"></path><path class="cls-3" d="M397.47,559.12h6.38a.4.4,0,0,1,.43.43v6.38a.41.41,0,0,1-.43.44h-6.38a.42.42,0,0,1-.44-.44v-6.38A.41.41,0,0,1,397.47,559.12Z" transform="translate(0 -6.71)"></path><path class="cls-3" d="M400.79,603.57H421.4a.59.59,0,0,1,.61.61v6a.59.59,0,0,1-.61.61H400.79a.59.59,0,0,1-.61-.61v-6C400.09,603.83,400.35,603.57,400.79,603.57Z" transform="translate(0 -6.71)"></path><path class="cls-3" d="M382.62,610.47a.67.67,0,0,0,.88,0h0l11.88-12.92a.59.59,0,0,0,0-.88L384.2,583.4a.67.67,0,0,0-.88-.09h0l-3.84,3.23a.68.68,0,0,0-.09.87h0l7.6,9a.58.58,0,0,1,0,.87l-8.12,8.91a.58.58,0,0,0,0,.87h0Z" transform="translate(0 -6.71)"></path><text class="cls-48" transform="translate(98.77 486.39)">P<tspan class="cls-49" x="66.72" y="0">R</tspan><tspan x="135.95" y="0">OFICIENT</tspan></text><path class="cls-3" d="M392.79,315.16l-27.07-2.51-10.75-25a2.16,2.16,0,0,0-4,0l-10.76,25-27.07,2.51a2.17,2.17,0,0,0-1.23,3.79l20.43,17.94-6,26.52a2.16,2.16,0,0,0,3.22,2.34L353,351.87l23.37,13.88a2.17,2.17,0,0,0,3.23-2.34l-6-26.52L394,319A2.17,2.17,0,0,0,392.79,315.16Z" transform="translate(0 0)"></path><path class="cls-3" d="M486.84,315.16l-27.07-2.51-10.76-25a2.16,2.16,0,0,0-4,0l-10.75,25-27.07,2.51A2.17,2.17,0,0,0,406,319l20.43,17.94-6,26.52a2.17,2.17,0,0,0,3.23,2.34L447,351.87l23.38,13.88a2.16,2.16,0,0,0,3.22-2.34l-6-26.52L488.07,319A2.17,2.17,0,0,0,486.84,315.16Z" transform="translate(0 0)"></path><g class="group"><path id="curve" d=" M 400 400 m -290, 0 a 290,290 0 1,1 580,0 a 290,290 0 1,1 -580,0" fill-opacity="0"></path><text class="cls-5"><textPath startOffset="261.5" href="#curve" id="text">PYTHON FUNDAMENTALS</textPath></text></g><g class="group"><path id="curve2" d="M 400 400 m -310, 0 a 310,310 0 1,0 620,0 a 310,310 0 1,0 -620,0" fill-opacity="0"></path><text class="cls-11 cls-9"><textPath startOffset="364" href="#curve2" id="text">ASSESSMENT</textPath></text></g></svg>